<svg width="800" height="800" viewBox="0 0 800 800" fill="none" xmlns="http://www.w3.org/2000/svg">
<path d="M670.876 82.5716C667.732 48.7 639.16 22.0903 604.48 22.0903C585.781 22.0903 568.864 29.8351 556.75 42.2706L552.357 32.7608C548.325 24.0313 538.106 20.0614 529.237 23.7982L83.5872 211.414C78.1473 210.004 72.4743 209.269 66.6776 209.269C54.1208 209.269 41.8448 212.818 31.1766 219.535C16.1033 229.031 5.62785 243.828 1.68171 261.201C-2.26442 278.577 0.792108 296.445 10.2852 311.519C20.0899 327.085 35.5224 337.624 53.079 341.256L244.729 645.535C177.721 665.104 132.125 708.48 132.125 760.068C132.125 769.92 140.113 777.907 149.965 777.907H501.626C511.478 777.907 519.465 769.92 519.465 760.068C519.465 694.401 445.621 642.014 347.719 635.147L131.464 291.807C131.536 291.505 131.624 291.205 131.695 290.901L439.712 161.366C420.265 191.736 408.952 227.798 408.952 266.465C408.952 276.32 416.939 284.305 426.792 284.305H782.158C792.01 284.305 799.998 276.32 799.998 266.465C800 181.955 746.1 109.816 670.876 82.5716ZM604.477 57.7697C615.726 57.7697 625.564 63.809 631.004 72.7931C622.322 71.6085 613.475 70.9449 604.477 70.9449C595.474 70.9449 586.628 71.6085 577.951 72.7931C583.386 63.809 593.226 57.7697 604.477 57.7697ZM83.2566 302.218C78.2924 305.344 72.5932 306.997 66.768 306.997C56.019 306.997 46.1929 301.581 40.4747 292.504C36.06 285.494 34.6399 277.186 36.4738 269.106C38.3078 261.025 43.1792 254.142 50.1914 249.727C55.1555 246.601 60.8547 244.948 66.6776 244.948C77.4242 244.948 87.2527 250.364 92.9733 259.441C102.088 273.913 97.7281 293.104 83.2566 302.218ZM480.525 742.228H171.066C186.058 701.625 250.831 670.042 325.788 670.042C400.753 670.044 465.532 701.625 480.525 742.228ZM305.47 635.021C297.421 635.544 289.552 636.403 281.848 637.523L92.7806 337.339C96.0488 335.95 99.2291 334.323 102.269 332.41C105.34 330.476 108.189 328.324 110.83 326L305.47 635.021ZM129.395 253.166C127.801 248.792 125.739 244.52 123.16 240.427C121.983 238.557 120.701 236.785 119.366 235.063L527.191 63.3737L535.89 82.2124L129.395 253.166ZM445.621 248.628C454.522 168.859 522.369 106.627 604.477 106.627C686.585 106.627 754.433 168.859 763.329 248.628H445.621Z" fill="#FF5C97"/>
<path d="M604.477 407.618C594.622 407.618 586.637 399.633 586.637 389.778V318.346C586.637 308.491 594.622 300.506 604.477 300.506C614.329 300.506 622.317 308.491 622.317 318.346V389.778C622.317 399.633 614.329 407.618 604.477 407.618Z" fill="#FF5C97"/>
<path d="M476.985 395.363C472.418 395.363 467.851 393.622 464.369 390.14C457.402 383.173 457.402 371.877 464.369 364.91L523.545 305.732C530.512 298.762 541.808 298.765 548.772 305.729C555.739 312.696 555.739 323.992 548.772 330.957L489.597 390.135C486.115 393.622 481.55 395.363 476.985 395.363Z" fill="#FF5C97"/>
<path d="M731.971 395.363C727.404 395.363 722.837 393.622 719.355 390.137L660.18 330.96C653.21 323.993 653.21 312.696 660.18 305.732C667.149 298.765 678.443 298.767 685.41 305.734L744.585 364.912C751.555 371.879 751.555 383.175 744.585 390.142C741.101 393.622 736.534 395.363 731.971 395.363Z" fill="#FF5C97"/>
<path d="M366.063 723.974H325.793C315.941 723.974 307.953 715.989 307.953 706.135C307.953 696.28 315.941 688.295 325.793 688.295H366.063C375.918 688.295 383.903 696.28 383.903 706.135C383.903 715.989 375.918 723.974 366.063 723.974Z" fill="#FF5C97"/>
</svg>
