<svg width="800" height="800" viewBox="0 0 800 800" fill="none" xmlns="http://www.w3.org/2000/svg">
<g clip-path="url(#clip0_7_53)">
<path d="M786.189 229.731L598.841 42.0836C589.889 33.1073 577.956 28.1572 565.257 28.1572C555.239 28.1572 545.503 31.3352 537.437 37.1713L532.242 40.1338L291.181 73.2895C285.66 73.4942 280.311 74.3694 275.2 75.8184L266.74 67.8654C266.393 67.5395 266.037 67.2191 265.676 66.9093C257.074 59.5085 246.089 55.4337 234.74 55.4337C222.044 55.4337 210.111 60.3838 201.145 69.3736L13.8214 256.996C-2.92748 273.783 -4.66458 300.612 9.76815 319.411C10.2664 320.054 10.7862 320.685 11.3275 321.291L91.708 411.025C94.3123 421.878 97.8835 433.063 102.346 444.525C82.8502 468.007 84.0783 503.007 106.076 525.013C106.114 525.051 106.152 525.086 106.189 525.124L106.45 525.382C117.49 536.381 132.071 542.505 147.608 542.78C147.319 545.185 147.12 547.606 147.12 550.065C147.12 566.017 153.32 581.012 164.58 592.31L164.82 592.553C164.857 592.59 164.892 592.628 164.93 592.666C176.233 603.969 191.261 610.198 207.248 610.198C209.101 610.198 210.932 610.096 212.756 609.929C212.933 610.131 213.125 610.333 213.305 610.538C213.273 611.348 213.186 612.151 213.186 612.964C213.186 628.919 219.389 643.92 230.652 655.215L230.899 655.468C230.934 655.503 230.967 655.535 231.002 655.57C242.302 666.871 257.33 673.095 273.317 673.095C273.357 673.095 273.395 673.089 273.436 673.089L279.14 678.794C279.802 693.765 285.875 707.753 296.54 718.418C296.608 718.483 296.678 718.553 296.745 718.62L296.952 718.825C307.596 729.409 321.536 735.437 336.442 736.096L352.211 751.868C365.092 764.749 382.259 771.843 400.545 771.843C421.59 771.843 441.148 762.382 454.204 745.883C461.303 736.918 465.771 726.624 467.675 715.962L477.578 725.868C490.659 738.946 508.728 746.452 527.149 746.452C542.36 746.452 557.237 741.308 569.041 731.962C582.154 721.586 590.948 706.797 593.899 690.525C606.546 701.344 622.894 707.463 639.527 707.463C654.735 707.463 669.615 702.316 681.419 692.973C696.714 680.867 706.135 662.761 707.263 643.3C708.314 625.216 702.16 607.5 690.288 594.053C701.268 592.116 711.677 587.503 720.409 580.595C735.706 568.489 745.124 550.383 746.252 530.922C747.383 511.426 740.144 492.356 726.39 478.602L700.985 453.197C701.912 452.276 702.798 451.312 703.614 450.272C751.186 389.654 776.804 344.557 786.249 304.658C786.989 303.354 787.644 301.997 788.199 300.596L793.445 287.378C804.282 269.021 801.559 245.136 786.189 229.731ZM148.682 510.516C141.64 510.516 134.6 507.828 129.221 502.455L128.93 502.167C118.187 491.421 118.187 473.994 128.93 463.251L150.46 441.721C155.833 436.346 162.873 433.658 169.918 433.658C176.963 433.658 184.006 436.346 189.384 441.721L189.667 442.01C200.418 452.755 200.418 470.183 189.667 480.929L168.143 502.455C162.768 507.825 155.725 510.516 148.682 510.516ZM226.712 569.814C221.336 575.19 214.293 577.878 207.248 577.878C200.205 577.878 193.163 575.19 187.784 569.814L187.499 569.526C176.75 558.778 176.75 541.355 187.499 530.607L238.432 479.674C243.811 474.298 250.853 471.61 257.899 471.61C264.944 471.61 271.987 474.298 277.362 479.674L277.65 479.959C288.396 490.708 288.396 508.135 277.65 518.878L226.712 569.814ZM292.775 632.716C287.405 638.089 280.362 640.774 273.317 640.774C266.272 640.774 259.229 638.089 253.856 632.716L253.565 632.425C242.817 621.679 242.817 604.252 253.565 593.503L286.527 560.536C291.903 555.163 298.943 552.478 305.988 552.478C313.031 552.478 320.073 555.163 325.452 560.536L325.742 560.827C336.485 571.573 336.485 589.003 325.742 599.749L292.775 632.716ZM339.141 703.908C332.098 703.908 325.058 701.22 319.683 695.847L319.392 695.561C308.641 684.813 308.641 667.383 319.392 656.637L334.385 641.644C339.76 636.271 346.803 633.583 353.848 633.583C360.891 633.583 367.936 636.271 373.312 641.644L373.6 641.935C384.343 652.683 384.343 670.108 373.6 680.854L358.605 695.847C353.226 701.22 346.184 703.908 339.141 703.908ZM428.867 725.827C421.638 734.96 411.095 739.525 400.548 739.525C391.31 739.525 382.073 736.021 375.065 729.016L372.28 726.231C375.545 724.05 378.617 721.537 381.453 718.699L396.444 703.711C407.001 693.151 412.729 679.591 413.731 665.751L425.258 677.275C438.32 690.331 440.329 711.346 428.867 725.827ZM703.539 501.451C718.548 516.457 717.486 541.689 700.352 555.252C693.935 560.332 686.24 562.764 678.519 562.764C668.813 562.764 659.071 558.918 651.8 551.643L521.132 420.976C517.739 417.582 513.295 415.886 508.849 415.886C504.405 415.886 499.956 417.582 496.565 420.976C489.695 427.843 489.695 438.98 496.565 445.845L664.547 613.829C679.553 628.835 678.492 654.068 661.361 667.63C654.943 672.707 647.248 675.142 639.527 675.142C629.821 675.142 620.08 671.293 612.808 664.022L445.613 496.826C442.177 493.39 437.671 491.669 433.162 491.669C428.657 491.669 424.151 493.39 420.712 496.826C413.936 503.603 413.936 514.588 420.712 521.361L552.168 652.818C567.175 667.824 566.114 693.057 548.982 706.617C542.565 711.696 534.87 714.128 527.149 714.128C517.443 714.128 507.704 710.282 500.43 703.008L364.586 567.161C362.195 556.459 356.902 546.281 348.594 537.97L348.3 537.677C338.923 528.304 326.973 522.49 314.062 520.758C316.629 514.028 318.026 506.837 318.026 499.417C318.026 483.436 311.803 468.405 300.502 457.105C300.47 457.073 300.437 457.04 300.405 457.008L300.152 456.757C288.857 445.489 273.85 439.287 257.896 439.287C247.325 439.287 237.199 442.061 228.268 447.175C225.712 436.717 220.423 427.097 212.637 419.274L212.443 419.077C212.373 419.007 212.303 418.934 212.233 418.864C200.93 407.561 185.902 401.335 169.915 401.335C153.926 401.335 138.898 407.564 127.597 418.873L127.503 418.967C125.416 412.471 123.644 406.034 122.262 399.681C121.775 397.459 120.84 395.369 119.453 393.565L35.4018 299.726C30.7803 293.71 31.3297 285.199 36.6864 279.829L224.029 92.1929C226.973 89.2412 230.848 87.7518 234.743 87.7518C238.246 87.7518 241.756 88.9611 244.602 91.4092L246.086 92.8015C233.541 105.144 225.739 122.292 225.739 141.236C225.739 178.652 256.11 209.101 293.494 209.233L412.837 210.747L703.539 501.451ZM764.595 272.45L758.156 288.674C756.769 290.478 755.835 292.565 755.347 294.79C746.244 336.564 714.158 384.486 678.19 430.316C632.433 384.559 426.575 178.598 426.575 178.598L293.737 176.912C274.114 176.912 258.057 160.855 258.057 141.233C258.057 121.61 274.114 105.556 293.737 105.556L542.81 71.2992C542.837 71.2965 542.861 71.2831 542.88 71.2669L555.392 64.13C558.239 61.6819 561.748 60.4727 565.252 60.4727C569.141 60.4727 573.022 61.9647 575.965 64.9137L763.308 252.55C768.668 257.923 769.217 266.433 764.595 272.45Z" fill="#FF5C97"/>
</g>
<defs>
<clipPath id="clip0_7_53">
<rect width="800" height="800" fill="white"/>
</clipPath>
</defs>
</svg>
