<svg width="800" height="800" viewBox="0 0 800 800" fill="none" xmlns="http://www.w3.org/2000/svg">
<path d="M73.1111 420.765H32V258.647C32 213.879 68.8121 177.588 114.222 177.588H278.667M73.1111 420.765V663.941C73.1111 708.71 109.923 745 155.333 745H648.667C694.078 745 730.889 708.71 730.889 663.941V420.765M73.1111 420.765H319.778M278.667 177.588V137.059C278.667 92.2912 315.479 56 360.889 56H443.111C488.522 56 525.333 92.2912 525.333 137.059V177.588M278.667 177.588H525.333M730.889 420.765H772V258.647C772 213.879 735.189 177.588 689.778 177.588H525.333M730.889 420.765H484.222M319.778 420.765V339.706H484.222V420.765M319.778 420.765V501.824H484.222V420.765" stroke="#FF5C97" stroke-width="42" stroke-linecap="round" stroke-linejoin="round"/>
</svg>
