<svg width="800" height="800" viewBox="0 0 800 800" fill="none" xmlns="http://www.w3.org/2000/svg">
<path fill-rule="evenodd" clip-rule="evenodd" d="M750 600C750 605.075 749.025 609.875 747.625 614.45L525 375L750 200V600ZM88.9 648.65L314.5 408.25L400 472.875L481.8 407.85L711.1 648.65C707.525 649.475 92.475 649.475 88.9 648.65ZM50 600V200L275 375L52.375 614.45C50.975 609.875 50 605.075 50 600ZM725 150L400 400L75 150H725ZM700 100H100C44.775 100 0 144.775 0 200V600C0 655.225 44.775 700 100 700H700C755.225 700 800 655.225 800 600V200C800 144.775 755.225 100 700 100Z" fill="#FF5C97"/>
</svg>
