<svg width="800" height="800" viewBox="0 0 800 800" fill="none" xmlns="http://www.w3.org/2000/svg">
<path fill-rule="evenodd" clip-rule="evenodd" d="M157.257 103.064C198.129 60.0323 265.737 68.0947 299.523 115.881L341.557 175.33C368.58 213.552 366.297 266.691 334.047 300.647L325.883 309.24C325.861 309.299 325.837 309.364 325.812 309.433C325.381 310.645 324.29 314.505 325.363 321.83C327.588 337.014 339.31 367.87 386.9 417.974C434.637 468.23 463.593 480.077 477.01 482.257C482.8 483.197 485.827 482.38 486.793 482.04L500.413 467.7C529.54 437.034 574.95 430.994 611.567 452.07L675.25 488.724C729.68 520.054 742.35 596.694 698.85 642.49L651.5 692.344C636.72 707.904 616.567 721.184 591.667 723.64C530.87 729.644 390.033 721.827 242.387 566.384C104.615 421.334 78.442 295.171 75.1337 233.531C73.499 203.075 87.0747 176.952 104.937 158.147L157.257 103.064ZM258.697 144.746C241.618 120.591 210.937 119.15 193.509 137.498L141.189 192.581C130.143 204.211 124.347 217.541 125.062 230.851C127.763 281.178 149.436 395.92 278.64 531.947C414.113 674.577 538.92 678.604 586.753 673.884C596.213 672.95 605.943 667.7 615.247 657.91L662.597 608.057C683.023 586.55 677.67 547.807 650.307 532.06L586.623 495.404C569.533 485.567 549.513 488.607 536.667 502.134L521.483 518.117L503.913 501.427C521.483 518.117 521.46 518.14 521.44 518.167L521.39 518.214L521.293 518.317L521.08 518.534L520.603 519.004C520.26 519.337 519.863 519.7 519.417 520.094C518.52 520.88 517.41 521.777 516.08 522.72C513.407 524.614 509.85 526.697 505.353 528.47C496.153 532.1 484.003 534.047 468.997 531.61C439.743 526.86 401.407 505.85 350.647 452.407C299.734 398.807 280.249 358.817 275.892 329.078C273.674 313.943 275.449 301.823 278.705 292.671C280.307 288.17 282.198 284.581 283.942 281.856C284.812 280.497 285.641 279.359 286.373 278.433C286.74 277.97 287.082 277.56 287.394 277.201L287.838 276.702L288.042 276.481L288.138 276.377L288.185 276.327C288.208 276.303 288.231 276.279 305.954 293.111L288.232 276.278L297.792 266.213C312.643 250.577 314.801 224.098 300.73 204.196L258.697 144.746Z" fill="#FF5C97"/>
<path d="M441.983 62.6614C444.19 49.0317 457.073 39.7861 470.703 41.9924C471.547 42.1541 474.263 42.6614 475.683 42.9781C478.53 43.6117 482.497 44.5867 487.443 46.0277C497.337 48.9091 511.157 53.6561 527.743 61.2604C560.953 76.4857 605.147 103.119 651.007 148.979C696.867 194.839 723.5 239.033 738.723 272.242C746.33 288.829 751.077 302.649 753.957 312.542C755.397 317.489 756.373 321.457 757.007 324.301C757.323 325.723 757.557 326.865 757.717 327.709L757.91 328.749C760.113 342.377 750.953 355.797 737.323 358.004C723.733 360.204 710.93 351 708.67 337.437C708.6 337.07 708.407 336.094 708.203 335.17C707.79 333.324 707.08 330.396 705.953 326.524C703.697 318.78 699.78 307.269 693.273 293.08C680.28 264.736 656.913 225.597 615.65 184.334C574.39 143.072 535.25 119.706 506.907 106.712C492.717 100.206 481.207 96.2887 473.46 94.0327C469.59 92.9051 464.723 91.7881 462.877 91.3771C449.31 89.1161 439.783 76.2521 441.983 62.6614Z" fill="#FF5C97"/>
<path fill-rule="evenodd" clip-rule="evenodd" d="M449.537 177.643C453.33 164.367 467.167 156.68 480.443 160.473L473.573 184.511C480.443 160.473 480.43 160.47 480.443 160.473L480.49 160.487L480.54 160.502L480.653 160.534L480.91 160.611L481.57 160.817C482.073 160.978 482.7 161.187 483.45 161.452C484.947 161.984 486.923 162.739 489.35 163.779C494.207 165.86 500.843 169.074 508.993 173.898C525.31 183.554 547.583 199.593 573.747 225.759C599.913 251.925 615.953 274.198 625.61 290.513C630.433 298.664 633.647 305.299 635.727 310.155C636.767 312.582 637.523 314.561 638.053 316.058C638.32 316.806 638.53 317.434 638.69 317.936L638.897 318.596L638.973 318.854L639.007 318.966L639.02 319.017C639.023 319.029 639.033 319.065 614.997 325.933L639.033 319.065C642.827 332.341 635.14 346.176 621.863 349.97C608.7 353.733 594.987 346.206 591.057 333.138L590.933 332.778C590.757 332.277 590.387 331.291 589.77 329.851C588.537 326.973 586.3 322.266 582.58 315.979C575.147 303.421 561.723 284.446 538.393 261.115C515.06 237.783 496.087 224.359 483.527 216.927C477.24 213.206 472.533 210.97 469.657 209.736C468.217 209.119 467.23 208.752 466.73 208.574L466.37 208.451C453.3 204.521 445.777 190.806 449.537 177.643Z" fill="#FF5C97"/>
</svg>
