<svg width="534" height="534" viewBox="0 0 534 534" fill="none" xmlns="http://www.w3.org/2000/svg">
<path d="M266.667 0C213.927 0 162.368 15.6397 118.515 44.9413C74.6616 74.243 40.4823 115.891 20.299 164.618C0.115651 213.343 -5.16536 266.963 5.12397 318.69C15.4133 370.42 40.811 417.933 78.105 455.23C115.399 492.523 162.914 517.92 214.643 528.21C266.37 538.5 319.99 533.217 368.717 513.033C417.443 492.85 459.09 458.673 488.393 414.82C517.693 370.967 533.333 319.41 533.333 266.667C533.333 195.942 505.237 128.115 455.23 78.105C405.22 28.095 337.39 0 266.667 0ZM397.667 182.667L354 389C350.667 403.667 342 407 329.667 400.333L263 351L229.667 382C228.097 384.05 226.08 385.717 223.77 386.873C221.46 388.027 218.917 388.64 216.333 388.667L221 322L344.333 210.333C350 205.667 344.333 203 336.333 207.667L185 302.667L118.333 282C104 277.667 103.667 267.667 121.333 261L378.333 161C391 157.333 401.667 164.667 397.667 182.667Z" fill="#1D1D1D"/>
</svg>
