<svg width="750" height="800" viewBox="0 0 750 800" fill="none" xmlns="http://www.w3.org/2000/svg">
<path d="M375 0C167.5 0 0 167.5 0 375C0 460 27.5 540 80 605L27.5 765C25 775 27.5 785 35 792.5C37.5 797.5 45 800 50 800C52.5 800 57.5 800 60 797.5L232.5 720C277.5 740 325 750 375 750C582.5 750 750 582.5 750 375C750 167.5 582.5 0 375 0ZM592.5 512.5C582.5 542.5 545 567.5 512.5 572.5C505 575 497.5 575 487.5 575C467.5 575 437.5 570 385 547.5C325 522.5 265 470 217.5 402.5V400C202.5 377.5 175 335 175 290C175 235 202.5 207.5 212.5 195C225 182.5 242.5 175 262.5 175C267.5 175 270 175 275 175C292.5 175 305 180 317.5 205L327.5 225C335 245 345 267.5 347.5 270C355 285 355 297.5 347.5 310C345 317.5 340 322.5 335 327.5C332.5 332.5 330 335 327.5 335C325 337.5 325 337.5 322.5 340C330 352.5 345 375 365 392.5C395 420 417.5 427.5 430 432.5C435 427.5 440 417.5 447.5 410L450 405C462.5 387.5 482.5 382.5 502.5 390C512.5 395 567.5 420 567.5 420L572.5 422.5C580 427.5 590 430 595 440C605 462.5 597.5 495 592.5 512.5Z" fill="#1D1D1D"/>
</svg>
