<svg width="258" height="81" viewBox="0 0 258 81" fill="none" xmlns="http://www.w3.org/2000/svg">
<g clip-path="url(#clip0_1_13)">
<path d="M59.7244 53.3636L63.3295 60.2287L67.0241 53.3636H72.6108L66.9219 63.1818L72.7642 73H67.2031L63.3295 66.2116L59.5199 73H53.8949L59.7244 63.1818L54.0994 53.3636H59.7244ZM81.3391 73.3707C80.0863 73.3707 78.9698 73.1534 77.9897 72.7188C77.0096 72.2756 76.234 71.6236 75.663 70.7628C75.1005 69.8935 74.8192 68.8111 74.8192 67.5156C74.8192 66.4247 75.0195 65.5085 75.4201 64.767C75.8207 64.0256 76.3661 63.429 77.0565 62.9773C77.7468 62.5256 78.5309 62.1847 79.4087 61.9545C80.2951 61.7244 81.2241 61.5625 82.1957 61.4688C83.3377 61.3494 84.2582 61.2386 84.957 61.1364C85.6559 61.0256 86.163 60.8636 86.4783 60.6506C86.7937 60.4375 86.9514 60.1222 86.9514 59.7045V59.6278C86.9514 58.8182 86.6957 58.1918 86.1843 57.7486C85.6815 57.3054 84.9656 57.0838 84.0366 57.0838C83.0565 57.0838 82.2766 57.3011 81.6971 57.7358C81.1175 58.1619 80.734 58.6989 80.5465 59.3466L75.5096 58.9375C75.7653 57.7443 76.2681 56.7131 77.0181 55.8438C77.7681 54.9659 78.7354 54.2926 79.9201 53.8239C81.1133 53.3466 82.494 53.108 84.0621 53.108C85.1531 53.108 86.1971 53.2358 87.1942 53.4915C88.1999 53.7472 89.0906 54.1435 89.8661 54.6804C90.6502 55.2173 91.2681 55.9077 91.7198 56.7514C92.1715 57.5866 92.3974 58.5881 92.3974 59.7557V73H87.2326V70.277H87.0792C86.7638 70.8906 86.342 71.4318 85.8136 71.9006C85.2852 72.3608 84.6502 72.723 83.9087 72.9872C83.1673 73.2429 82.3107 73.3707 81.3391 73.3707ZM82.8988 69.6122C83.6999 69.6122 84.4073 69.4545 85.021 69.1392C85.6346 68.8153 86.1161 68.3807 86.4656 67.8352C86.815 67.2898 86.9897 66.6719 86.9897 65.9815V63.8977C86.8192 64.0085 86.5849 64.1108 86.2866 64.2045C85.9968 64.2898 85.6687 64.3707 85.3022 64.4474C84.9357 64.5156 84.5692 64.5795 84.2028 64.6392C83.8363 64.6903 83.5039 64.7372 83.2056 64.7798C82.5664 64.8736 82.0082 65.0227 81.5309 65.2273C81.0536 65.4318 80.6829 65.7088 80.4187 66.0582C80.1545 66.3991 80.0224 66.8253 80.0224 67.3366C80.0224 68.0781 80.2908 68.6449 80.8278 69.0369C81.3732 69.4205 82.0636 69.6122 82.8988 69.6122ZM96.6225 73V53.3636H101.813V56.8281H102.043C102.452 55.6776 103.134 54.7699 104.088 54.1051C105.043 53.4403 106.185 53.108 107.515 53.108C108.861 53.108 110.007 53.4446 110.953 54.1179C111.9 54.7827 112.53 55.6861 112.846 56.8281H113.05C113.451 55.7031 114.175 54.804 115.223 54.1307C116.28 53.4489 117.529 53.108 118.969 53.108C120.801 53.108 122.289 53.6918 123.431 54.8594C124.581 56.0185 125.157 57.6634 125.157 59.794V73H119.723V60.8679C119.723 59.777 119.434 58.9588 118.854 58.4134C118.275 57.8679 117.55 57.5952 116.681 57.5952C115.692 57.5952 114.921 57.9105 114.367 58.5412C113.813 59.1634 113.536 59.9858 113.536 61.0085V73H108.256V60.7528C108.256 59.7898 107.979 59.0227 107.425 58.4517C106.88 57.8807 106.159 57.5952 105.265 57.5952C104.659 57.5952 104.114 57.7486 103.628 58.0554C103.151 58.3537 102.772 58.7756 102.49 59.321C102.209 59.858 102.069 60.4886 102.069 61.2131V73H96.6225ZM129.458 80.3636V53.3636H134.828V56.6619H135.071C135.309 56.1335 135.654 55.5966 136.106 55.0511C136.566 54.4972 137.163 54.0369 137.896 53.6705C138.637 53.2955 139.558 53.108 140.657 53.108C142.089 53.108 143.41 53.483 144.62 54.233C145.831 54.9744 146.798 56.0952 147.522 57.5952C148.247 59.0866 148.609 60.9574 148.609 63.2074C148.609 65.3977 148.255 67.2472 147.548 68.7557C146.849 70.2557 145.895 71.3935 144.684 72.169C143.483 72.9361 142.136 73.3196 140.645 73.3196C139.588 73.3196 138.689 73.1449 137.947 72.7955C137.214 72.446 136.613 72.0071 136.145 71.4787C135.676 70.9418 135.318 70.4006 135.071 69.8551H134.904V80.3636H129.458ZM134.789 63.1818C134.789 64.3494 134.951 65.3679 135.275 66.2372C135.599 67.1065 136.068 67.7841 136.681 68.2699C137.295 68.7472 138.041 68.9858 138.919 68.9858C139.805 68.9858 140.555 68.7429 141.169 68.2571C141.782 67.7628 142.247 67.081 142.562 66.2116C142.886 65.3338 143.048 64.3239 143.048 63.1818C143.048 62.0483 142.89 61.0511 142.575 60.1903C142.26 59.3295 141.795 58.6562 141.181 58.1705C140.568 57.6847 139.814 57.4418 138.919 57.4418C138.032 57.4418 137.282 57.6761 136.669 58.1449C136.064 58.6136 135.599 59.2784 135.275 60.1392C134.951 61 134.789 62.0142 134.789 63.1818ZM157.686 46.8182V73H152.24V46.8182H157.686ZM170.997 73.3835C168.977 73.3835 167.239 72.9744 165.781 72.1562C164.332 71.3295 163.216 70.1619 162.432 68.6534C161.648 67.1364 161.256 65.3423 161.256 63.2713C161.256 61.2514 161.648 59.4787 162.432 57.9531C163.216 56.4276 164.32 55.2386 165.743 54.3864C167.175 53.5341 168.854 53.108 170.78 53.108C172.075 53.108 173.281 53.3168 174.398 53.7344C175.523 54.1435 176.503 54.7614 177.338 55.5881C178.182 56.4148 178.838 57.4545 179.307 58.7074C179.776 59.9517 180.01 61.4091 180.01 63.0795V64.5753H163.429V61.2003H174.884C174.884 60.4162 174.713 59.7216 174.372 59.1165C174.031 58.5114 173.558 58.0384 172.953 57.6974C172.357 57.348 171.662 57.1733 170.869 57.1733C170.043 57.1733 169.31 57.3651 168.67 57.7486C168.04 58.1236 167.545 58.6307 167.188 59.2699C166.83 59.9006 166.646 60.6037 166.638 61.3793V64.5881C166.638 65.5597 166.817 66.3991 167.175 67.1065C167.541 67.8139 168.057 68.3594 168.722 68.7429C169.386 69.1264 170.175 69.3182 171.087 69.3182C171.692 69.3182 172.246 69.233 172.749 69.0625C173.251 68.892 173.682 68.6364 174.04 68.2955C174.398 67.9545 174.67 67.5369 174.858 67.0426L179.895 67.375C179.639 68.5852 179.115 69.642 178.322 70.5455C177.538 71.4403 176.524 72.1392 175.28 72.642C174.044 73.1364 172.616 73.3835 170.997 73.3835ZM189.01 46.8182V73H183.564V46.8182H189.01ZM202.245 73.3835C200.259 73.3835 198.542 72.9616 197.093 72.1179C195.652 71.2656 194.54 70.081 193.756 68.5639C192.972 67.0384 192.58 65.2699 192.58 63.2585C192.58 61.2301 192.972 59.4574 193.756 57.9403C194.54 56.4148 195.652 55.2301 197.093 54.3864C198.542 53.5341 200.259 53.108 202.245 53.108C204.23 53.108 205.944 53.5341 207.384 54.3864C208.833 55.2301 209.949 56.4148 210.733 57.9403C211.517 59.4574 211.909 61.2301 211.909 63.2585C211.909 65.2699 211.517 67.0384 210.733 68.5639C209.949 70.081 208.833 71.2656 207.384 72.1179C205.944 72.9616 204.23 73.3835 202.245 73.3835ZM202.27 69.1648C203.174 69.1648 203.928 68.9091 204.533 68.3977C205.138 67.8778 205.594 67.1705 205.901 66.2756C206.216 65.3807 206.374 64.3622 206.374 63.2202C206.374 62.0781 206.216 61.0597 205.901 60.1648C205.594 59.2699 205.138 58.5625 204.533 58.0426C203.928 57.5227 203.174 57.2628 202.27 57.2628C201.358 57.2628 200.591 57.5227 199.969 58.0426C199.355 58.5625 198.891 59.2699 198.576 60.1648C198.269 61.0597 198.115 62.0781 198.115 63.2202C198.115 64.3622 198.269 65.3807 198.576 66.2756C198.891 67.1705 199.355 67.8778 199.969 68.3977C200.591 68.9091 201.358 69.1648 202.27 69.1648ZM224.297 80.7727C222.533 80.7727 221.02 80.5298 219.759 80.044C218.506 79.5668 217.509 78.9148 216.767 78.0881C216.026 77.2614 215.544 76.3324 215.323 75.3011L220.36 74.6236C220.513 75.0156 220.756 75.3821 221.088 75.723C221.421 76.0639 221.86 76.3366 222.405 76.5412C222.959 76.7543 223.632 76.8608 224.425 76.8608C225.61 76.8608 226.586 76.571 227.353 75.9915C228.128 75.4205 228.516 74.4616 228.516 73.1151V69.5227H228.286C228.047 70.0682 227.689 70.5838 227.212 71.0696C226.735 71.5554 226.121 71.9517 225.371 72.2585C224.621 72.5653 223.726 72.7188 222.686 72.7188C221.212 72.7188 219.87 72.3778 218.659 71.696C217.458 71.0057 216.499 69.9531 215.783 68.5384C215.076 67.1151 214.722 65.3168 214.722 63.1435C214.722 60.919 215.084 59.0611 215.809 57.5696C216.533 56.0781 217.496 54.9616 218.698 54.2202C219.908 53.4787 221.233 53.108 222.674 53.108C223.773 53.108 224.694 53.2955 225.435 53.6705C226.176 54.0369 226.773 54.4972 227.225 55.0511C227.685 55.5966 228.039 56.1335 228.286 56.6619H228.49V53.3636H233.898V73.1918C233.898 74.8622 233.489 76.2599 232.671 77.3849C231.853 78.5099 230.719 79.3537 229.27 79.9162C227.83 80.4872 226.172 80.7727 224.297 80.7727ZM224.412 68.6278C225.29 68.6278 226.032 68.4105 226.637 67.9759C227.25 67.5327 227.719 66.902 228.043 66.0838C228.375 65.2571 228.542 64.2685 228.542 63.1179C228.542 61.9673 228.38 60.9702 228.056 60.1264C227.732 59.2741 227.263 58.6136 226.65 58.1449C226.036 57.6761 225.29 57.4418 224.412 57.4418C223.517 57.4418 222.763 57.6847 222.15 58.1705C221.536 58.6477 221.071 59.3125 220.756 60.1648C220.441 61.017 220.283 62.0014 220.283 63.1179C220.283 64.2514 220.441 65.2315 220.756 66.0582C221.08 66.8764 221.544 67.5114 222.15 67.9631C222.763 68.4062 223.517 68.6278 224.412 68.6278ZM247.104 73.3835C245.118 73.3835 243.401 72.9616 241.952 72.1179C240.512 71.2656 239.4 70.081 238.615 68.5639C237.831 67.0384 237.439 65.2699 237.439 63.2585C237.439 61.2301 237.831 59.4574 238.615 57.9403C239.4 56.4148 240.512 55.2301 241.952 54.3864C243.401 53.5341 245.118 53.108 247.104 53.108C249.09 53.108 250.803 53.5341 252.243 54.3864C253.692 55.2301 254.809 56.4148 255.593 57.9403C256.377 59.4574 256.769 61.2301 256.769 63.2585C256.769 65.2699 256.377 67.0384 255.593 68.5639C254.809 70.081 253.692 71.2656 252.243 72.1179C250.803 72.9616 249.09 73.3835 247.104 73.3835ZM247.13 69.1648C248.033 69.1648 248.787 68.9091 249.392 68.3977C249.998 67.8778 250.453 67.1705 250.76 66.2756C251.076 65.3807 251.233 64.3622 251.233 63.2202C251.233 62.0781 251.076 61.0597 250.76 60.1648C250.453 59.2699 249.998 58.5625 249.392 58.0426C248.787 57.5227 248.033 57.2628 247.13 57.2628C246.218 57.2628 245.451 57.5227 244.828 58.0426C244.215 58.5625 243.75 59.2699 243.435 60.1648C243.128 61.0597 242.975 62.0781 242.975 63.2202C242.975 64.3622 243.128 65.3807 243.435 66.2756C243.75 67.1705 244.215 67.8778 244.828 68.3977C245.451 68.9091 246.218 69.1648 247.13 69.1648Z" fill="white"/>
<path d="M64.1222 42.3835C62.1023 42.3835 60.3636 41.9744 58.9062 41.1562C57.4574 40.3295 56.3409 39.1619 55.5568 37.6534C54.7727 36.1364 54.3807 34.3423 54.3807 32.2713C54.3807 30.2514 54.7727 28.4787 55.5568 26.9531C56.3409 25.4276 57.4446 24.2386 58.8679 23.3864C60.2997 22.5341 61.9787 22.108 63.9048 22.108C65.2003 22.108 66.4063 22.3168 67.5227 22.7344C68.6477 23.1435 69.6278 23.7614 70.4631 24.5881C71.3068 25.4148 71.9631 26.4545 72.4318 27.7074C72.9006 28.9517 73.1349 30.4091 73.1349 32.0795V33.5753H56.554V30.2003H68.0085C68.0085 29.4162 67.8381 28.7216 67.4972 28.1165C67.1563 27.5114 66.6832 27.0384 66.0781 26.6974C65.4815 26.348 64.7869 26.1733 63.9943 26.1733C63.1676 26.1733 62.4347 26.3651 61.7955 26.7486C61.1648 27.1236 60.6705 27.6307 60.3125 28.2699C59.9545 28.9006 59.7713 29.6037 59.7628 30.3793V33.5881C59.7628 34.5597 59.9418 35.3991 60.2997 36.1065C60.6662 36.8139 61.1818 37.3594 61.8466 37.7429C62.5114 38.1264 63.2997 38.3182 64.2116 38.3182C64.8168 38.3182 65.3707 38.233 65.8736 38.0625C66.3764 37.892 66.8068 37.6364 67.1648 37.2955C67.5227 36.9545 67.7955 36.5369 67.983 36.0426L73.0199 36.375C72.7642 37.5852 72.2401 38.642 71.4474 39.5455C70.6634 40.4403 69.6491 41.1392 68.4048 41.642C67.169 42.1364 65.7415 42.3835 64.1222 42.3835ZM85.6378 42.3835C83.6179 42.3835 81.8793 41.9744 80.4219 41.1562C78.973 40.3295 77.8565 39.1619 77.0724 37.6534C76.2884 36.1364 75.8963 34.3423 75.8963 32.2713C75.8963 30.2514 76.2884 28.4787 77.0724 26.9531C77.8565 25.4276 78.9602 24.2386 80.3835 23.3864C81.8153 22.5341 83.4943 22.108 85.4205 22.108C86.7159 22.108 87.9219 22.3168 89.0384 22.7344C90.1634 23.1435 91.1435 23.7614 91.9787 24.5881C92.8224 25.4148 93.4787 26.4545 93.9474 27.7074C94.4162 28.9517 94.6506 30.4091 94.6506 32.0795V33.5753H78.0696V30.2003H89.5241C89.5241 29.4162 89.3537 28.7216 89.0128 28.1165C88.6719 27.5114 88.1989 27.0384 87.5938 26.6974C86.9972 26.348 86.3026 26.1733 85.5099 26.1733C84.6832 26.1733 83.9503 26.3651 83.3111 26.7486C82.6804 27.1236 82.1861 27.6307 81.8281 28.2699C81.4702 28.9006 81.2869 29.6037 81.2784 30.3793V33.5881C81.2784 34.5597 81.4574 35.3991 81.8153 36.1065C82.1818 36.8139 82.6974 37.3594 83.3622 37.7429C84.027 38.1264 84.8153 38.3182 85.7273 38.3182C86.3324 38.3182 86.8864 38.233 87.3892 38.0625C87.892 37.892 88.3224 37.6364 88.6804 37.2955C89.0384 36.9545 89.3111 36.5369 89.4986 36.0426L94.5355 36.375C94.2798 37.5852 93.7557 38.642 92.9631 39.5455C92.179 40.4403 91.1648 41.1392 89.9205 41.642C88.6847 42.1364 87.2571 42.3835 85.6378 42.3835ZM107.153 42.3835C105.134 42.3835 103.395 41.9744 101.938 41.1562C100.489 40.3295 99.3722 39.1619 98.5881 37.6534C97.804 36.1364 97.4119 34.3423 97.4119 32.2713C97.4119 30.2514 97.804 28.4787 98.5881 26.9531C99.3722 25.4276 100.476 24.2386 101.899 23.3864C103.331 22.5341 105.01 22.108 106.936 22.108C108.232 22.108 109.438 22.3168 110.554 22.7344C111.679 23.1435 112.659 23.7614 113.494 24.5881C114.338 25.4148 114.994 26.4545 115.463 27.7074C115.932 28.9517 116.166 30.4091 116.166 32.0795V33.5753H99.5852V30.2003H111.04C111.04 29.4162 110.869 28.7216 110.528 28.1165C110.188 27.5114 109.714 27.0384 109.109 26.6974C108.513 26.348 107.818 26.1733 107.026 26.1733C106.199 26.1733 105.466 26.3651 104.827 26.7486C104.196 27.1236 103.702 27.6307 103.344 28.2699C102.986 28.9006 102.803 29.6037 102.794 30.3793V33.5881C102.794 34.5597 102.973 35.3991 103.331 36.1065C103.697 36.8139 104.213 37.3594 104.878 37.7429C105.543 38.1264 106.331 38.3182 107.243 38.3182C107.848 38.3182 108.402 38.233 108.905 38.0625C109.408 37.892 109.838 37.6364 110.196 37.2955C110.554 36.9545 110.827 36.5369 111.014 36.0426L116.051 36.375C115.795 37.5852 115.271 38.642 114.479 39.5455C113.695 40.4403 112.68 41.1392 111.436 41.642C110.2 42.1364 108.773 42.3835 107.153 42.3835ZM128.669 42.3835C126.649 42.3835 124.911 41.9744 123.453 41.1562C122.004 40.3295 120.888 39.1619 120.104 37.6534C119.32 36.1364 118.928 34.3423 118.928 32.2713C118.928 30.2514 119.32 28.4787 120.104 26.9531C120.888 25.4276 121.991 24.2386 123.415 23.3864C124.847 22.5341 126.526 22.108 128.452 22.108C129.747 22.108 130.953 22.3168 132.07 22.7344C133.195 23.1435 134.175 23.7614 135.01 24.5881C135.854 25.4148 136.51 26.4545 136.979 27.7074C137.447 28.9517 137.682 30.4091 137.682 32.0795V33.5753H121.101V30.2003H132.555C132.555 29.4162 132.385 28.7216 132.044 28.1165C131.703 27.5114 131.23 27.0384 130.625 26.6974C130.028 26.348 129.334 26.1733 128.541 26.1733C127.714 26.1733 126.982 26.3651 126.342 26.7486C125.712 27.1236 125.217 27.6307 124.859 28.2699C124.501 28.9006 124.318 29.6037 124.31 30.3793V33.5881C124.31 34.5597 124.489 35.3991 124.847 36.1065C125.213 36.8139 125.729 37.3594 126.393 37.7429C127.058 38.1264 127.847 38.3182 128.759 38.3182C129.364 38.3182 129.918 38.233 130.42 38.0625C130.923 37.892 131.354 37.6364 131.712 37.2955C132.07 36.9545 132.342 36.5369 132.53 36.0426L137.567 36.375C137.311 37.5852 136.787 38.642 135.994 39.5455C135.21 40.4403 134.196 41.1392 132.952 41.642C131.716 42.1364 130.288 42.3835 128.669 42.3835ZM150.185 42.3835C148.165 42.3835 146.426 41.9744 144.969 41.1562C143.52 40.3295 142.403 39.1619 141.619 37.6534C140.835 36.1364 140.443 34.3423 140.443 32.2713C140.443 30.2514 140.835 28.4787 141.619 26.9531C142.403 25.4276 143.507 24.2386 144.93 23.3864C146.362 22.5341 148.041 22.108 149.967 22.108C151.263 22.108 152.469 22.3168 153.585 22.7344C154.71 23.1435 155.69 23.7614 156.526 24.5881C157.369 25.4148 158.026 26.4545 158.494 27.7074C158.963 28.9517 159.197 30.4091 159.197 32.0795V33.5753H142.616V30.2003H154.071C154.071 29.4162 153.901 28.7216 153.56 28.1165C153.219 27.5114 152.746 27.0384 152.141 26.6974C151.544 26.348 150.849 26.1733 150.057 26.1733C149.23 26.1733 148.497 26.3651 147.858 26.7486C147.227 27.1236 146.733 27.6307 146.375 28.2699C146.017 28.9006 145.834 29.6037 145.825 30.3793V33.5881C145.825 34.5597 146.004 35.3991 146.362 36.1065C146.729 36.8139 147.244 37.3594 147.909 37.7429C148.574 38.1264 149.362 38.3182 150.274 38.3182C150.879 38.3182 151.433 38.233 151.936 38.0625C152.439 37.892 152.869 37.6364 153.227 37.2955C153.585 36.9545 153.858 36.5369 154.045 36.0426L159.082 36.375C158.827 37.5852 158.303 38.642 157.51 39.5455C156.726 40.4403 155.712 41.1392 154.467 41.642C153.232 42.1364 151.804 42.3835 150.185 42.3835Z" fill="white"/>
<path d="M1.06818 73V3.18182H48.1136V15.3523H15.8295V31.9886H45.6932V44.1591H15.8295V60.8295H48.25V73H1.06818Z" fill="white"/>
</g>
<defs>
<clipPath id="clip0_1_13">
<rect width="258" height="81" fill="white"/>
</clipPath>
</defs>
</svg>
